<svg class="svg-icon" style="width: 1.28515625em; height: 1em; vertical-align: middle; fill: currentColor; overflow: hidden;" viewBox="0 0 1316 1024" version="1.1" xmlns="http://www.w3.org/2000/svg">
    <path d="M576 497.066667c0-14.933333-12.8-27.733333-27.733333-27.733334h-29.866667l-19.2-74.666666c-2.133333-12.8-12.8-21.333333-25.6-25.6-74.666667-19.2-151.466667-19.2-226.133333 0-12.8 4.266667-21.333333 12.8-25.6 25.6L202.666667 469.333333h-17.066667c-14.933333 0-27.733333 12.8-27.733333 27.733334 0 10.666667 8.533333 21.333333 19.2 25.6-17.066667 8.533333-27.733333 25.6-27.733334 46.933333V640c0 17.066667 10.666667 29.866667 27.733334 34.133333 2.133333 21.333333 21.333333 36.266667 42.666666 36.266667h4.266667c21.333333 0 38.4-14.933333 42.666667-36.266667h196.266666c4.266667 19.2 21.333333 36.266667 42.666667 36.266667h4.266667c21.333333 0 38.4-14.933333 42.666666-36.266667 14.933333-4.266667 27.733333-17.066667 27.733334-34.133333v-70.4c0-19.2-10.666667-36.266667-25.6-44.8 10.666667-2.133333 21.333333-12.8 21.333333-27.733333z m-356.266667 134.4c-19.2 0-36.266667-14.933333-36.266666-36.266667s14.933333-36.266667 36.266666-36.266667c19.2 0 36.266667 14.933333 36.266667 36.266667s-14.933333 36.266667-36.266667 36.266667z m285.866667 0c-19.2 0-36.266667-14.933333-36.266667-36.266667s14.933333-36.266667 36.266667-36.266667c19.2 0 36.266667 14.933333 36.266667 36.266667s-17.066667 36.266667-36.266667 36.266667zM258.133333 403.2c34.133333-8.533333 68.266667-12.8 104.533334-12.8s70.4 4.266667 104.533333 12.8l19.2 93.866667H238.933333l19.2-93.866667zM864 448h-192c-17.066667 0-32-14.933333-32-32s14.933333-32 32-32h192c17.066667 0 32 14.933333 32 32s-14.933333 32-32 32z m-42.666667 128h-149.333333c-17.066667 0-32-14.933333-32-32s14.933333-32 32-32h149.333333c17.066667 0 32 14.933333 32 32s-14.933333 32-32 32z m-128 64c17.066667 0 32 14.933333 32 32s-14.933333 32-32 32h-21.333333c-17.066667 0-32-14.933333-32-32s14.933333-32 32-32h21.333333z m-6.4 213.333333c4.266667 29.866667 14.933333 59.733333 29.866667 85.333334H85.333333c-46.933333 0-85.333333-38.4-85.333333-85.333334V213.333333c0-46.933333 38.4-85.333333 85.333333-85.333333h896c46.933333 0 85.333333 38.4 85.333334 85.333333v375.466667c-25.6-14.933333-55.466667-25.6-85.333334-29.866667V213.333333H85.333333v640h601.6zM938.666667 597.333333c-117.333333 0-213.333333 96-213.333334 213.333334s96 213.333333 213.333334 213.333333 213.333333-96 213.333333-213.333333-96-213.333333-213.333333-213.333334z m142.933333 189.866667l-149.333333 149.333333c-8.533333 8.533333-19.2 12.8-29.866667 12.8s-21.333333-4.266667-29.866667-12.8l-74.666666-74.666666c-17.066667-17.066667-17.066667-42.666667 0-59.733334 17.066667-17.066667 42.666667-17.066667 59.733333 0l44.8 44.8 119.466667-119.466666c17.066667-17.066667 42.666667-17.066667 59.733333 0 14.933333 17.066667 14.933333 42.666667 0 59.733333z" fill="#FFFFFF" />
</svg>
